<svg width="138pt" height="908pt" xmlns="http://www.w3.org/2000/svg" xmlns:xlink="http://www.w3.org/1999/xlink" xmlns:ev="http://www.w3.org/2001/xml-events" style="overflow: hidden; "><g id="viewport-20250525232419746" class="svg-pan-zoom_viewport" transform="matrix(0.898678405955839,0,0,0.898678405955839,334.43595565103976,4.6211671314024265)" style="transform: matrix(0.898678, 0, 0, 0.898678, 334.436, 4.62117);">
<g id="graph0" class="graph" transform="scale(1 1) rotate(0) translate(4 904)">
<title>G</title>
<polygon fill="white" stroke="none" points="-4,4 -4,-904 134,-904 134,4 -4,4"></polygon>
<g id="clust1" class="cluster">
<title>cluster_0</title>
<path fill="lightblue" stroke="lightblue" d="M20,-208C20,-208 110,-208 110,-208 116,-208 122,-214 122,-220 122,-220 122,-688 122,-688 122,-694 116,-700 110,-700 110,-700 20,-700 20,-700 14,-700 8,-694 8,-688 8,-688 8,-220 8,-220 8,-214 14,-208 20,-208"></path>
</g>
<g id="clust2" class="cluster">
<title>cluster_1</title>
<path fill="lightgreen" stroke="lightgreen" d="M28,-496C28,-496 102,-496 102,-496 108,-496 114,-502 114,-508 114,-508 114,-680 114,-680 114,-686 108,-692 102,-692 102,-692 28,-692 28,-692 22,-692 16,-686 16,-680 16,-680 16,-508 16,-508 16,-502 22,-496 28,-496"></path>
</g>
<!-- Conv1D -->
<g id="node1" class="node">
<title>Conv1D</title>
<path fill="ivory" stroke="ivory" d="M84.72,-684C84.72,-684 45.28,-684 45.28,-684 39.28,-684 33.28,-678 33.28,-672 33.28,-672 33.28,-660 33.28,-660 33.28,-654 39.28,-648 45.28,-648 45.28,-648 84.72,-648 84.72,-648 90.72,-648 96.72,-654 96.72,-660 96.72,-660 96.72,-672 96.72,-672 96.72,-678 90.72,-684 84.72,-684"></path>
<text text-anchor="middle" x="65" y="-661.8" font-family="Times,serif" font-size="14.00">Conv1D</text>
</g>
<!-- BatchNorm -->
<g id="node2" class="node">
<title>BatchNorm</title>
<path fill="ivory" stroke="ivory" d="M93.66,-612C93.66,-612 36.34,-612 36.34,-612 30.34,-612 24.34,-606 24.34,-600 24.34,-600 24.34,-588 24.34,-588 24.34,-582 30.34,-576 36.34,-576 36.34,-576 93.66,-576 93.66,-576 99.66,-576 105.66,-582 105.66,-588 105.66,-588 105.66,-600 105.66,-600 105.66,-606 99.66,-612 93.66,-612"></path>
<text text-anchor="middle" x="65" y="-589.8" font-family="Times,serif" font-size="14.00">BatchNorm</text>
</g>
<!-- Conv1D&#45;&gt;BatchNorm -->
<g id="edge1" class="edge">
<title>Conv1D-&gt;BatchNorm</title>
<path fill="none" stroke="black" d="M65,-647.7C65,-640.41 65,-631.73 65,-623.54"></path>
<polygon fill="black" stroke="black" points="68.5,-623.62 65,-613.62 61.5,-623.62 68.5,-623.62"></polygon>
</g>
<!-- ReLU -->
<g id="node3" class="node">
<title>ReLU</title>
<path fill="ivory" stroke="ivory" d="M80,-540C80,-540 50,-540 50,-540 44,-540 38,-534 38,-528 38,-528 38,-516 38,-516 38,-510 44,-504 50,-504 50,-504 80,-504 80,-504 86,-504 92,-510 92,-516 92,-516 92,-528 92,-528 92,-534 86,-540 80,-540"></path>
<text text-anchor="middle" x="65" y="-517.8" font-family="Times,serif" font-size="14.00">ReLU</text>
</g>
<!-- BatchNorm&#45;&gt;ReLU -->
<g id="edge2" class="edge">
<title>BatchNorm-&gt;ReLU</title>
<path fill="none" stroke="black" d="M65,-575.7C65,-568.41 65,-559.73 65,-551.54"></path>
<polygon fill="black" stroke="black" points="68.5,-551.62 65,-541.62 61.5,-551.62 68.5,-551.62"></polygon>
</g>
<!-- Add -->
<g id="node4" class="node">
<title>Add</title>
<polygon fill="ivory" stroke="ivory" points="65,-468 25.87,-450 65,-432 104.13,-450 65,-468"></polygon>
<polyline fill="none" stroke="ivory" points="36.77,-455.02 36.77,-444.98"></polyline>
<polyline fill="none" stroke="ivory" points="54.1,-437.02 75.9,-437.02"></polyline>
<polyline fill="none" stroke="ivory" points="93.23,-444.98 93.23,-455.02"></polyline>
<polyline fill="none" stroke="ivory" points="75.9,-462.98 54.1,-462.98"></polyline>
<text text-anchor="middle" x="65" y="-445.8" font-family="Times,serif" font-size="14.00">Add</text>
</g>
<!-- ReLU&#45;&gt;Add -->
<g id="edge3" class="edge">
<title>ReLU-&gt;Add</title>
<path fill="none" stroke="black" d="M65,-503.7C65,-496.41 65,-487.73 65,-479.54"></path>
<polygon fill="black" stroke="black" points="68.5,-479.62 65,-469.62 61.5,-479.62 68.5,-479.62"></polygon>
</g>
<!-- BatchNorm_1 -->
<g id="node5" class="node">
<title>BatchNorm_1</title>
<path fill="ivory" stroke="ivory" d="M93.66,-396C93.66,-396 36.34,-396 36.34,-396 30.34,-396 24.34,-390 24.34,-384 24.34,-384 24.34,-372 24.34,-372 24.34,-366 30.34,-360 36.34,-360 36.34,-360 93.66,-360 93.66,-360 99.66,-360 105.66,-366 105.66,-372 105.66,-372 105.66,-384 105.66,-384 105.66,-390 99.66,-396 93.66,-396"></path>
<text text-anchor="middle" x="65" y="-373.8" font-family="Times,serif" font-size="14.00">BatchNorm</text>
</g>
<!-- Add&#45;&gt;BatchNorm_1 -->
<g id="edge4" class="edge">
<title>Add-&gt;BatchNorm_1</title>
<path fill="none" stroke="black" d="M65,-431.7C65,-424.41 65,-415.73 65,-407.54"></path>
<polygon fill="black" stroke="black" points="68.5,-407.62 65,-397.62 61.5,-407.62 68.5,-407.62"></polygon>
</g>
<!-- ReLU_1 -->
<g id="node6" class="node">
<title>ReLU_1</title>
<path fill="ivory" stroke="ivory" d="M80,-324C80,-324 50,-324 50,-324 44,-324 38,-318 38,-312 38,-312 38,-300 38,-300 38,-294 44,-288 50,-288 50,-288 80,-288 80,-288 86,-288 92,-294 92,-300 92,-300 92,-312 92,-312 92,-318 86,-324 80,-324"></path>
<text text-anchor="middle" x="65" y="-301.8" font-family="Times,serif" font-size="14.00">ReLU</text>
</g>
<!-- BatchNorm_1&#45;&gt;ReLU_1 -->
<g id="edge5" class="edge">
<title>BatchNorm_1-&gt;ReLU_1</title>
<path fill="none" stroke="black" d="M65,-359.7C65,-352.41 65,-343.73 65,-335.54"></path>
<polygon fill="black" stroke="black" points="68.5,-335.62 65,-325.62 61.5,-335.62 68.5,-335.62"></polygon>
</g>
<!-- MaxPool1D -->
<g id="node7" class="node">
<title>MaxPool1D</title>
<path fill="ivory" stroke="ivory" d="M95.22,-252C95.22,-252 34.78,-252 34.78,-252 28.78,-252 22.78,-246 22.78,-240 22.78,-240 22.78,-228 22.78,-228 22.78,-222 28.78,-216 34.78,-216 34.78,-216 95.22,-216 95.22,-216 101.22,-216 107.22,-222 107.22,-228 107.22,-228 107.22,-240 107.22,-240 107.22,-246 101.22,-252 95.22,-252"></path>
<text text-anchor="middle" x="65" y="-229.8" font-family="Times,serif" font-size="14.00">MaxPool1D</text>
</g>
<!-- ReLU_1&#45;&gt;MaxPool1D -->
<g id="edge6" class="edge">
<title>ReLU_1-&gt;MaxPool1D</title>
<path fill="none" stroke="black" d="M65,-287.7C65,-280.41 65,-271.73 65,-263.54"></path>
<polygon fill="black" stroke="black" points="68.5,-263.62 65,-253.62 61.5,-263.62 68.5,-263.62"></polygon>
</g>
<!-- Dense -->
<g id="node11" class="node">
<title>Dense</title>
<path fill="none" stroke="black" d="M80,-180C80,-180 50,-180 50,-180 44,-180 38,-174 38,-168 38,-168 38,-156 38,-156 38,-150 44,-144 50,-144 50,-144 80,-144 80,-144 86,-144 92,-150 92,-156 92,-156 92,-168 92,-168 92,-174 86,-180 80,-180"></path>
<text text-anchor="middle" x="65" y="-157.8" font-family="Times,serif" font-size="14.00">Dense</text>
</g>
<!-- MaxPool1D&#45;&gt;Dense -->
<g id="edge10" class="edge">
<title>MaxPool1D-&gt;Dense</title>
<path fill="none" stroke="black" d="M65,-215.7C65,-208.41 65,-199.73 65,-191.54"></path>
<polygon fill="black" stroke="black" points="68.5,-191.62 65,-181.62 61.5,-191.62 68.5,-191.62"></polygon>
</g>
<!-- Conv1D_0 -->
<g id="node8" class="node">
<title>Conv1D_0</title>
<path fill="none" stroke="black" d="M84.72,-900C84.72,-900 45.28,-900 45.28,-900 39.28,-900 33.28,-894 33.28,-888 33.28,-888 33.28,-876 33.28,-876 33.28,-870 39.28,-864 45.28,-864 45.28,-864 84.72,-864 84.72,-864 90.72,-864 96.72,-870 96.72,-876 96.72,-876 96.72,-888 96.72,-888 96.72,-894 90.72,-900 84.72,-900"></path>
<text text-anchor="middle" x="65" y="-877.8" font-family="Times,serif" font-size="14.00">Conv1D</text>
</g>
<!-- BatchNorm_0 -->
<g id="node9" class="node">
<title>BatchNorm_0</title>
<path fill="none" stroke="black" d="M93.66,-828C93.66,-828 36.34,-828 36.34,-828 30.34,-828 24.34,-822 24.34,-816 24.34,-816 24.34,-804 24.34,-804 24.34,-798 30.34,-792 36.34,-792 36.34,-792 93.66,-792 93.66,-792 99.66,-792 105.66,-798 105.66,-804 105.66,-804 105.66,-816 105.66,-816 105.66,-822 99.66,-828 93.66,-828"></path>
<text text-anchor="middle" x="65" y="-805.8" font-family="Times,serif" font-size="14.00">BatchNorm</text>
</g>
<!-- Conv1D_0&#45;&gt;BatchNorm_0 -->
<g id="edge7" class="edge">
<title>Conv1D_0-&gt;BatchNorm_0</title>
<path fill="none" stroke="black" d="M65,-863.7C65,-856.41 65,-847.73 65,-839.54"></path>
<polygon fill="black" stroke="black" points="68.5,-839.62 65,-829.62 61.5,-839.62 68.5,-839.62"></polygon>
</g>
<!-- ReLU_0 -->
<g id="node10" class="node">
<title>ReLU_0</title>
<path fill="none" stroke="black" d="M80,-756C80,-756 50,-756 50,-756 44,-756 38,-750 38,-744 38,-744 38,-732 38,-732 38,-726 44,-720 50,-720 50,-720 80,-720 80,-720 86,-720 92,-726 92,-732 92,-732 92,-744 92,-744 92,-750 86,-756 80,-756"></path>
<text text-anchor="middle" x="65" y="-733.8" font-family="Times,serif" font-size="14.00">ReLU</text>
</g>
<!-- BatchNorm_0&#45;&gt;ReLU_0 -->
<g id="edge8" class="edge">
<title>BatchNorm_0-&gt;ReLU_0</title>
<path fill="none" stroke="black" d="M65,-791.7C65,-784.41 65,-775.73 65,-767.54"></path>
<polygon fill="black" stroke="black" points="68.5,-767.62 65,-757.62 61.5,-767.62 68.5,-767.62"></polygon>
</g>
<!-- ReLU_0&#45;&gt;Conv1D -->
<g id="edge9" class="edge">
<title>ReLU_0-&gt;Conv1D</title>
<path fill="none" stroke="black" d="M65,-719.7C65,-712.41 65,-703.73 65,-695.54"></path>
<polygon fill="black" stroke="black" points="68.5,-695.62 65,-685.62 61.5,-695.62 68.5,-695.62"></polygon>
</g>
<!-- Dropout -->
<g id="node12" class="node">
<title>Dropout</title>
<path fill="none" stroke="black" d="M84.33,-108C84.33,-108 45.67,-108 45.67,-108 39.67,-108 33.67,-102 33.67,-96 33.67,-96 33.67,-84 33.67,-84 33.67,-78 39.67,-72 45.67,-72 45.67,-72 84.33,-72 84.33,-72 90.33,-72 96.33,-78 96.33,-84 96.33,-84 96.33,-96 96.33,-96 96.33,-102 90.33,-108 84.33,-108"></path>
<text text-anchor="middle" x="65" y="-85.8" font-family="Times,serif" font-size="14.00">Dropout</text>
</g>
<!-- Dense&#45;&gt;Dropout -->
<g id="edge11" class="edge">
<title>Dense-&gt;Dropout</title>
<path fill="none" stroke="black" d="M65,-143.7C65,-136.41 65,-127.73 65,-119.54"></path>
<polygon fill="black" stroke="black" points="68.5,-119.62 65,-109.62 61.5,-119.62 68.5,-119.62"></polygon>
</g>
<!-- Softmax -->
<g id="node13" class="node">
<title>Softmax</title>
<polygon fill="none" stroke="black" points="65,-36 3.11,-18 65,0 126.89,-18 65,-36"></polygon>
<polyline fill="none" stroke="black" points="14.64,-21.35 14.64,-14.65"></polyline>
<polyline fill="none" stroke="black" points="53.48,-3.35 76.52,-3.35"></polyline>
<polyline fill="none" stroke="black" points="115.36,-14.65 115.36,-21.35"></polyline>
<polyline fill="none" stroke="black" points="76.52,-32.65 53.48,-32.65"></polyline>
<text text-anchor="middle" x="65" y="-13.8" font-family="Times,serif" font-size="14.00">Softmax</text>
</g>
<!-- Dropout&#45;&gt;Softmax -->
<g id="edge12" class="edge">
<title>Dropout-&gt;Softmax</title>
<path fill="none" stroke="black" d="M65,-71.7C65,-64.41 65,-55.73 65,-47.54"></path>
<polygon fill="black" stroke="black" points="68.5,-47.62 65,-37.62 61.5,-47.62 68.5,-47.62"></polygon>
</g>
</g>
</g></svg>